<?xml version="1.0" encoding="UTF-8" standalone="no"?><!DOCTYPE svg PUBLIC "-//W3C//DTD SVG 1.1//EN" "http://www.w3.org/Graphics/SVG/1.1/DTD/svg11.dtd"><svg width="100%" height="100%" viewBox="0 0 1280 1280" version="1.1" xmlns="http://www.w3.org/2000/svg" xmlns:xlink="http://www.w3.org/1999/xlink" xml:space="preserve" xmlns:serif="http://www.serif.com/" style="fill-rule:evenodd;clip-rule:evenodd;stroke-linejoin:round;stroke-miterlimit:1.41421;"><path d="M300,112.5c0,-34.495 -28.005,-62.5 -62.5,-62.5l-125,0c-34.495,0 -62.5,28.005 -62.5,62.5l0,125c0,34.495 28.005,62.5 62.5,62.5l125,0c34.495,0 62.5,-28.005 62.5,-62.5l0,-125Z" style="fill:#14db3f;"/><path d="M610,112.5c0,-34.495 -28.005,-62.5 -62.5,-62.5l-125,0c-34.495,0 -62.5,28.005 -62.5,62.5l0,125c0,34.495 28.005,62.5 62.5,62.5l125,0c34.495,0 62.5,-28.005 62.5,-62.5l0,-125Z" style="fill:#1073ff;"/><path d="M920,112.5c0,-34.495 -28.005,-62.5 -62.5,-62.5l-125,0c-34.495,0 -62.5,28.005 -62.5,62.5l0,125c0,34.495 28.005,62.5 62.5,62.5l125,0c34.495,0 62.5,-28.005 62.5,-62.5l0,-125Z" style="fill:#ff4200;"/><path d="M1230,112.5c0,-34.495 -28.005,-62.5 -62.5,-62.5l-125,0c-34.495,0 -62.5,28.005 -62.5,62.5l0,125c0,34.495 28.005,62.5 62.5,62.5l125,0c34.495,0 62.5,-28.005 62.5,-62.5l0,-125Z" style="fill:#1073ff;"/><path d="M300,422.5c0,-34.495 -28.005,-62.5 -62.5,-62.5l-125,0c-34.495,0 -62.5,28.005 -62.5,62.5l0,125c0,34.495 28.005,62.5 62.5,62.5l125,0c34.495,0 62.5,-28.005 62.5,-62.5l0,-125Z" style="fill:#1073ff;"/><path d="M610,422.5c0,-34.495 -28.005,-62.5 -62.5,-62.5l-125,0c-34.495,0 -62.5,28.005 -62.5,62.5l0,125c0,34.495 28.005,62.5 62.5,62.5l125,0c34.495,0 62.5,-28.005 62.5,-62.5l0,-125Z" style="fill:#14db3f;"/><path d="M920,422.5c0,-34.495 -28.005,-62.5 -62.5,-62.5l-125,0c-34.495,0 -62.5,28.005 -62.5,62.5l0,125c0,34.495 28.005,62.5 62.5,62.5l125,0c34.495,0 62.5,-28.005 62.5,-62.5l0,-125Z" style="fill:#1073ff;"/><path d="M1230,422.5c0,-34.495 -28.005,-62.5 -62.5,-62.5l-125,0c-34.495,0 -62.5,28.005 -62.5,62.5l0,125c0,34.495 28.005,62.5 62.5,62.5l125,0c34.495,0 62.5,-28.005 62.5,-62.5l0,-125Z" style="fill:#ff4200;"/><path d="M300,732.5c0,-34.495 -28.005,-62.5 -62.5,-62.5l-125,0c-34.495,0 -62.5,28.005 -62.5,62.5l0,125c0,34.495 28.005,62.5 62.5,62.5l125,0c34.495,0 62.5,-28.005 62.5,-62.5l0,-125Z" style="fill:#1073ff;"/><path d="M610,732.5c0,-34.495 -28.005,-62.5 -62.5,-62.5l-125,0c-34.495,0 -62.5,28.005 -62.5,62.5l0,125c0,34.495 28.005,62.5 62.5,62.5l125,0c34.495,0 62.5,-28.005 62.5,-62.5l0,-125Z" style="fill:#ff4200;"/><path d="M920,732.5c0,-34.495 -28.005,-62.5 -62.5,-62.5l-125,0c-34.495,0 -62.5,28.005 -62.5,62.5l0,125c0,34.495 28.005,62.5 62.5,62.5l125,0c34.495,0 62.5,-28.005 62.5,-62.5l0,-125Z" style="fill:#1073ff;"/><path d="M1230,732.5c0,-34.495 -28.005,-62.5 -62.5,-62.5l-125,0c-34.495,0 -62.5,28.005 -62.5,62.5l0,125c0,34.495 28.005,62.5 62.5,62.5l125,0c34.495,0 62.5,-28.005 62.5,-62.5l0,-125Z" style="fill:#14db3f;"/><path d="M300,1042.5c0,-34.495 -28.005,-62.5 -62.5,-62.5l-125,0c-34.495,0 -62.5,28.005 -62.5,62.5l0,125c0,34.495 28.005,62.5 62.5,62.5l125,0c34.495,0 62.5,-28.005 62.5,-62.5l0,-125Z" style="fill:#ff4200;"/><path d="M610,1042.5c0,-34.495 -28.005,-62.5 -62.5,-62.5l-125,0c-34.495,0 -62.5,28.005 -62.5,62.5l0,125c0,34.495 28.005,62.5 62.5,62.5l125,0c34.495,0 62.5,-28.005 62.5,-62.5l0,-125Z" style="fill:#1073ff;"/><path d="M920,1042.5c0,-34.495 -28.005,-62.5 -62.5,-62.5l-125,0c-34.495,0 -62.5,28.005 -62.5,62.5l0,125c0,34.495 28.005,62.5 62.5,62.5l125,0c34.495,0 62.5,-28.005 62.5,-62.5l0,-125Z" style="fill:#14db3f;"/><path d="M1230,1042.5c0,-34.495 -28.005,-62.5 -62.5,-62.5l-125,0c-34.495,0 -62.5,28.005 -62.5,62.5l0,125c0,34.495 28.005,62.5 62.5,62.5l125,0c34.495,0 62.5,-28.005 62.5,-62.5l0,-125Z" style="fill:#1073ff;"/></svg>